<svg width="24" height="24" viewBox="0 0 24 24" fill="none" xmlns="http://www.w3.org/2000/svg">
<path d="M20.5167 0H3.48333C1.77535 0 0.386353 1.38899 0.386353 3.09697V17.0334C0.386353 18.7413 1.77535 20.1303 3.48333 20.1303V23.2258C3.48333 23.5262 3.65676 23.7987 3.92929 23.9272C4.03304 23.9752 4.14608 24 4.25757 24C4.43565 24 4.61217 23.9396 4.75309 23.8204L9.18331 20.1303H20.5167C22.2247 20.1303 23.6137 18.7413 23.6137 17.0334V3.09697C23.6137 1.38899 22.2247 0 20.5167 0ZM5.80606 9.29092C7.08666 9.29092 8.12879 10.3331 8.12879 11.6137C8.12879 12.8943 7.08666 13.9364 5.80606 13.9364H4.25757C3.83019 13.9364 3.48333 13.5895 3.48333 13.1621C3.48333 12.7348 3.83019 12.3879 4.25757 12.3879H5.80606C6.23344 12.3879 6.5803 12.041 6.5803 11.6137C6.5803 11.1863 6.23344 10.8394 5.80606 10.8394C4.52546 10.8394 3.48333 9.79728 3.48333 8.51668C3.48333 7.23608 4.52546 6.19395 5.80606 6.19395H7.35454C7.78193 6.19395 8.12879 6.54081 8.12879 6.96819C8.12879 7.39557 7.78193 7.74244 7.35454 7.74244H5.80606C5.37867 7.74244 5.03181 8.0893 5.03181 8.51668C5.03181 8.94406 5.37867 9.29092 5.80606 9.29092ZM14.3227 13.1621C14.3227 13.5895 13.9759 13.9364 13.5485 13.9364C13.1211 13.9364 12.7742 13.5895 12.7742 13.1621V10.2479L12.6922 10.412C12.4289 10.937 11.5695 10.937 11.3063 10.412L11.2258 10.2479V13.1621C11.2258 13.5895 10.8789 13.9364 10.4515 13.9364C10.0241 13.9364 9.67727 13.5895 9.67727 13.1621V6.96819C9.67727 6.60894 9.92503 6.29615 10.2734 6.21408C10.6188 6.13046 10.9826 6.30079 11.1437 6.62133L12 8.33396L12.8563 6.62288C13.0158 6.29925 13.3704 6.13201 13.7266 6.21408C14.0765 6.29615 14.3227 6.60894 14.3227 6.96819V13.1621ZM18.194 9.29092C19.4746 9.29092 20.5167 10.3331 20.5167 11.6137C20.5167 12.8943 19.4746 13.9364 18.194 13.9364H16.6455C16.2181 13.9364 15.8712 13.5895 15.8712 13.1621C15.8712 12.7348 16.2181 12.3879 16.6455 12.3879H18.194C18.6198 12.3879 18.9682 12.041 18.9682 11.6137C18.9682 11.1863 18.6198 10.8394 18.194 10.8394C16.9134 10.8394 15.8712 9.79728 15.8712 8.51668C15.8712 7.23608 16.9134 6.19395 18.194 6.19395H19.7424C20.1698 6.19395 20.5167 6.54081 20.5167 6.96819C20.5167 7.39557 20.1698 7.74244 19.7424 7.74244H18.194C17.7681 7.74244 17.4197 8.0893 17.4197 8.51668C17.4197 8.94406 17.7681 9.29092 18.194 9.29092Z" fill="#21BF73"/>
</svg>
