<svg width="20" height="20" viewBox="0 0 20 20" fill="none" xmlns="http://www.w3.org/2000/svg">
<g clip-path="url(#clip0)">
<path d="M7.36914 10.5425C6.20914 10.5425 5.26831 11.4833 5.26831 12.6433V17.8983C5.26831 19.0583 6.20914 19.9991 7.36914 19.9991C8.52914 19.9991 9.46997 19.0583 9.46997 17.8983V12.6433C9.46914 11.4833 8.52831 10.5425 7.36914 10.5425Z" fill="#E91E63"/>
<path d="M0.0158691 12.6433C0.0158691 13.8041 0.957536 14.7458 2.11837 14.7458C3.2792 14.7458 4.22087 13.8041 4.22087 12.6433V10.5408H2.12004C2.1192 10.5408 2.1192 10.5408 2.11837 10.5408C0.957536 10.5408 0.0158691 11.4824 0.0158691 12.6433Z" fill="#E91E63"/>
<path d="M7.37172 -0.000732422C7.37089 -0.000732422 7.37006 -0.000732422 7.36922 -0.000732422C6.20839 -0.000732422 5.26672 0.940934 5.26672 2.10177C5.26672 3.2626 6.20839 4.20427 7.36922 4.20427H9.47006V2.10177C9.47006 2.10093 9.47006 2.09927 9.47006 2.0976C9.46922 0.938434 8.53006 -0.000732422 7.37172 -0.000732422Z" fill="#00BCD4"/>
<path d="M2.10421 9.47502H7.36921C8.53004 9.47502 9.47171 8.53335 9.47171 7.37252C9.47171 6.21169 8.53004 5.27002 7.36921 5.27002H2.10421C0.943376 5.27002 0.00170898 6.21169 0.00170898 7.37252C0.00170898 8.53335 0.943376 9.47502 2.10421 9.47502Z" fill="#00BCD4"/>
<path d="M17.8808 5.26929C16.7216 5.26929 15.7825 6.20845 15.7825 7.36762V7.37179V9.47429H17.8833C19.0441 9.47429 19.9858 8.53262 19.9858 7.37179C19.9858 6.21095 19.0441 5.26929 17.8833 5.26929C17.8825 5.26929 17.8816 5.26929 17.8808 5.26929Z" fill="#4CAF50"/>
<path d="M10.5342 2.10157V7.3724C10.5342 8.5324 11.475 9.47323 12.635 9.47323C13.795 9.47323 14.7358 8.5324 14.7358 7.3724V2.10157C14.7358 0.941566 13.795 0.000732422 12.635 0.000732422C11.475 0.000732422 10.5342 0.941566 10.5342 2.10157Z" fill="#4CAF50"/>
<path d="M14.735 17.8965C14.735 16.7365 13.7942 15.7957 12.6342 15.7957H10.5333V17.8982C10.5342 19.0573 11.4742 19.9973 12.6342 19.9973C13.7942 19.9973 14.735 19.0565 14.735 17.8965Z" fill="#FF9800"/>
<path d="M17.8991 10.5408H12.6341C11.4733 10.5408 10.5316 11.4824 10.5316 12.6433C10.5316 13.8041 11.4733 14.7458 12.6341 14.7458H17.8991C19.0599 14.7458 20.0016 13.8041 20.0016 12.6433C20.0016 11.4824 19.0599 10.5408 17.8991 10.5408Z" fill="#FF9800"/>
</g>
<defs>
<clipPath id="clip0">
<rect width="20" height="20" fill="white"/>
</clipPath>
</defs>
</svg>
