<svg width="24" height="24" viewBox="0 0 24 24" fill="none" xmlns="http://www.w3.org/2000/svg">
<path d="M12.677 8.00026C14.5777 8.00026 16.1185 6.43314 16.1185 4.50001C16.1185 2.56687 14.5777 0.999756 12.677 0.999756C10.7764 0.999756 9.2356 2.56687 9.2356 4.50001C9.2356 6.43314 10.7764 8.00026 12.677 8.00026Z" fill="#7B83EB"/>
<path opacity="0.1" d="M12.4314 5.25H9.31445L9.32994 5.31975L9.33141 5.32575L9.34764 5.39025C9.57412 6.26379 10.1236 7.01457 10.8814 7.48582C11.6392 7.95708 12.5467 8.11237 13.4143 7.91927V6.24976C13.4136 5.98485 13.3097 5.73102 13.1256 5.5437C12.9414 5.35638 12.6918 5.25079 12.4314 5.25Z" fill="black"/>
<path opacity="0.2" d="M11.694 6H9.56738C9.84649 6.59851 10.2868 7.10418 10.8373 7.45826C11.3877 7.81233 12.0256 8.00026 12.6769 8.00023V6.99974C12.6762 6.73484 12.5723 6.48101 12.3882 6.29369C12.204 6.10637 11.9545 6.00079 11.694 6Z" fill="black"/>
<path d="M20.4197 8.25C21.8451 8.25 23.0006 7.07475 23.0006 5.625C23.0006 4.17525 21.8451 3 20.4197 3C18.9944 3 17.8389 4.17525 17.8389 5.625C17.8389 7.07475 18.9944 8.25 20.4197 8.25Z" fill="#5059C9"/>
<path d="M22.6318 9H16.8351C16.71 9 16.5899 9.05057 16.5014 9.14059C16.4129 9.23061 16.3632 9.3527 16.3632 9.48V15.5625C16.3472 16.4428 16.6291 17.302 17.1616 17.9961C17.6942 18.6903 18.445 19.1772 19.2885 19.3755C19.8256 19.4901 20.3812 19.4815 20.9147 19.3502C21.4482 19.2189 21.9462 18.9683 22.3724 18.6165C22.7986 18.2648 23.1424 17.8208 23.3786 17.3168C23.6148 16.8129 23.7376 16.2618 23.7379 15.7035V10.125C23.7379 9.82663 23.6214 9.54048 23.414 9.3295C23.2065 9.11853 22.9252 9 22.6318 9Z" fill="#5059C9"/>
<path d="M18.5762 10.125V17.25C18.5769 18.5704 18.1491 19.8542 17.3591 20.902C16.5692 21.9498 15.4613 22.7032 14.2073 23.0451C12.9534 23.387 11.6235 23.2984 10.4241 22.793C9.22474 22.2876 8.22291 21.3937 7.57411 20.25C7.43221 20.0102 7.30893 19.7594 7.20541 19.5C7.10889 19.2555 7.02761 19.005 6.96206 18.75C6.84049 18.2596 6.77858 17.7558 6.77771 17.25V10.125C6.77752 9.97721 6.80599 9.83083 6.86151 9.69425C6.91703 9.55767 6.9985 9.43357 7.10125 9.32907C7.204 9.22456 7.32601 9.1417 7.4603 9.08523C7.59459 9.02877 7.73851 8.9998 7.88382 9H17.4701C17.6154 8.9998 17.7593 9.02877 17.8936 9.08523C18.0279 9.1417 18.1499 9.22456 18.2527 9.32907C18.3554 9.43357 18.4369 9.55767 18.4924 9.69425C18.5479 9.83083 18.5764 9.97721 18.5762 10.125Z" fill="#7B83EB"/>
<path opacity="0.2" d="M11.694 6H9.56738C9.84649 6.59851 10.2868 7.10418 10.8373 7.45826C11.3877 7.81233 12.0256 8.00026 12.6769 8.00023V6.99974C12.6762 6.73484 12.5723 6.48101 12.3882 6.29369C12.204 6.10637 11.9545 6.00079 11.694 6Z" fill="black"/>
<path opacity="0.1" d="M13.4144 9V18.5025C13.4144 18.7286 13.3383 18.9478 13.1988 19.1238C13.0592 19.2999 12.8647 19.422 12.6475 19.47C12.5781 19.4909 12.506 19.5011 12.4336 19.5H7.20541C7.10889 19.2554 7.02761 19.0049 6.96206 18.75C6.84049 18.2595 6.77858 17.7558 6.77771 17.25V10.125C6.77752 9.9772 6.80599 9.83083 6.86151 9.69425C6.91703 9.55767 6.9985 9.43357 7.10125 9.32906C7.204 9.22456 7.32601 9.1417 7.4603 9.08523C7.59459 9.02877 7.73851 8.9998 7.88382 9H13.4144Z" fill="black"/>
<path opacity="0.2" d="M12.677 9V19.2525C12.678 19.3261 12.6681 19.3995 12.6475 19.47C12.6003 19.691 12.4802 19.8889 12.3072 20.0308C12.1341 20.1727 11.9185 20.25 11.6962 20.25H7.57411C7.43221 20.0102 7.30893 19.7594 7.20541 19.5C7.10889 19.2555 7.02761 19.005 6.96206 18.75C6.84049 18.2596 6.77858 17.7558 6.77771 17.25V10.125C6.77752 9.97721 6.80599 9.83083 6.86151 9.69425C6.91703 9.55767 6.9985 9.43357 7.10125 9.32907C7.204 9.22456 7.32601 9.1417 7.4603 9.08523C7.59459 9.02877 7.73851 8.9998 7.88382 9H12.677Z" fill="black"/>
<path opacity="0.2" d="M12.677 9V17.7525C12.6758 18.0167 12.5721 18.2697 12.3884 18.4565C12.2047 18.6433 11.956 18.7488 11.6962 18.75H6.96206C6.84049 18.2596 6.77858 17.7558 6.77771 17.25V10.125C6.77752 9.97721 6.80599 9.83083 6.86151 9.69425C6.91703 9.55767 6.9985 9.43357 7.10125 9.32907C7.204 9.22456 7.32601 9.1417 7.4603 9.08523C7.59459 9.02877 7.73851 8.9998 7.88382 9H12.677Z" fill="black"/>
<path opacity="0.2" d="M7.88381 9C7.7385 8.9998 7.59458 9.02877 7.4603 9.08523C7.32601 9.1417 7.204 9.22456 7.10125 9.32907C6.9985 9.43357 6.91703 9.55767 6.86151 9.69425C6.80599 9.83083 6.77752 9.97721 6.77771 10.125V17.25C6.77858 17.7558 6.84049 18.2596 6.96206 18.75H10.9588C11.2185 18.7488 11.4673 18.6433 11.651 18.4565C11.8346 18.2697 11.9383 18.0167 11.9395 17.7525V9H7.88381Z" fill="black"/>
<path d="M1.12419 6H10.9567C11.2174 6 11.4674 6.10533 11.6517 6.29282C11.8361 6.48031 11.9396 6.7346 11.9396 6.99975V17.0002C11.9396 17.2654 11.8361 17.5197 11.6517 17.7072C11.4674 17.8947 11.2174 18 10.9567 18H1.12419C0.863494 18 0.613476 17.8947 0.429136 17.7072C0.244796 17.5197 0.141235 17.2654 0.141235 17.0002L0.141235 6.99975C0.141235 6.7346 0.244796 6.48031 0.429136 6.29282C0.613476 6.10533 0.863494 6 1.12419 6Z" fill="#4B53BC"/>
<path d="M8.97519 9.73117H6.77036V15.7462H5.32358V9.73117H3.10547V8.25366H8.97519V9.73117Z" fill="white"/>
</svg>
