<svg width="380" height="150" viewBox="0 0 380 150" fill="none" xmlns="http://www.w3.org/2000/svg">
<circle opacity="0.3" cx="182.5" cy="75" r="75" fill="#B0EACD"/>
<circle cx="182.5" cy="75" r="43.75" fill="#21BF73"/>
<path d="M171.25 75L178.75 82.5L193.75 67.5" stroke="white" stroke-width="4" stroke-linecap="round" stroke-linejoin="round"/>
<circle cx="46.25" cy="41.25" r="3.75" fill="#21BF73"/>
<circle cx="326.25" cy="93.75" r="3.75" fill="#21BF73"/>
<circle cx="321.25" cy="135" r="2.5" fill="#21BF73"/>
<circle cx="356.25" cy="52.5" r="2.5" fill="#21BF73"/>
<circle cx="270" cy="53.75" r="2.5" fill="#21BF73"/>
<circle cx="97.5" cy="23.75" r="2.5" fill="#21BF73"/>
<circle cx="7.5" cy="58.75" r="2.5" fill="#21BF73"/>
<circle cx="33.75" cy="100" r="2.5" fill="#21BF73"/>
<circle cx="41.25" cy="136.25" r="2.5" fill="#21BF73"/>
<circle cx="105" cy="141.25" r="1.25" fill="#21BF73"/>
<circle cx="75" cy="112.5" r="1.25" fill="#21BF73"/>
<circle cx="1.25" cy="127.5" r="1.25" fill="#21BF73"/>
<circle cx="72.5" cy="71.25" r="1.25" fill="#21BF73"/>
<circle cx="65" cy="20" r="1.25" fill="#21BF73"/>
<circle cx="282.5" cy="7.5" r="1.25" fill="#21BF73"/>
<circle cx="307.5" cy="27.5" r="1.25" fill="#21BF73"/>
<circle cx="315" cy="66.25" r="1.25" fill="#21BF73"/>
<circle cx="378.75" cy="88.75" r="1.25" fill="#21BF73"/>
<circle cx="273.75" cy="118.75" r="1.25" fill="#21BF73"/>
</svg>
