<svg width="125" height="51" viewBox="0 0 125 51" fill="none" xmlns="http://www.w3.org/2000/svg">
<path d="M84.3081 5.41592C81.9497 4.7867 79.2479 5.7455 77.8 7.70804C76.994 8.81666 76.576 10.15 76.4417 11.5133C76.3372 12.5919 76.4417 13.7455 76.9641 14.6743C77.3224 15.3185 77.8448 15.8429 78.4269 16.2773C80.0092 17.4608 82.0542 17.9852 84.0096 17.7305C86.9352 17.356 90.7565 14.7642 89.8161 11.3485C89.1593 8.96647 86.7113 6.06011 84.3081 5.41592Z" fill="#1EA765"/>
<path d="M82.8899 10.2395C81.9047 10.2395 81.0986 9.43056 81.0986 8.4418C81.0986 7.45303 81.9047 6.64404 82.8899 6.64404C83.875 6.64404 84.6811 7.45303 84.6811 8.4418C84.6811 9.44554 83.875 10.2395 82.8899 10.2395Z" fill="#163A5F"/>
<path d="M82.6364 8.48651C82.308 8.1719 82.308 7.64757 82.6364 7.31798C82.9648 7.00338 83.4873 7.00338 83.8007 7.31798C84.1291 7.63259 84.1291 8.15692 83.8007 8.48651C83.4723 8.80111 82.9499 8.80111 82.6364 8.48651Z" fill="white"/>
<path d="M70.7244 6.52431C69.575 7.07862 68.5152 7.84267 67.6495 8.78649C67.4256 9.0262 67.2166 9.28088 66.9031 9.40073C66.6046 9.52058 66.2016 9.44567 66.0672 9.14604C65.9777 8.95129 66.0225 8.74155 66.0822 8.53181C66.53 7.06363 67.6943 5.92505 68.8884 4.96624C70.8587 3.3932 73.4112 5.26587 70.7244 6.52431Z" fill="#21BF73"/>
<path d="M81.6362 3.27315C82.9348 3.40798 84.1886 3.79749 85.338 4.41172C85.6216 4.56154 85.9201 4.74131 86.2485 4.75629C86.5769 4.77127 86.9351 4.56154 86.9799 4.23195C86.9949 4.02221 86.8904 3.82745 86.756 3.64768C85.8306 2.37427 84.3379 1.67015 82.8751 1.16078C80.4719 0.291868 78.621 2.94356 81.6362 3.27315Z" fill="#21BF73"/>
<path d="M84.0842 20.8467C84.2931 20.8017 104.131 16.5171 104.131 16.5171C104.131 16.5171 111.803 16.5171 115.386 16.8617C120.565 17.356 121.386 18.5695 121.207 19.0639C120.521 21.0115 104.176 26.15 104.176 26.15L81.5615 25.9253L84.0842 20.8467Z" fill="#FD5E53"/>
<path d="M113.714 19.8727C113.505 19.7528 113.221 19.6629 113.057 19.8277C112.997 19.8876 112.967 19.9775 112.952 20.0674C112.729 20.8914 112.654 21.7453 112.743 22.5693C112.758 22.794 112.818 23.0337 112.997 23.1686C113.146 23.2585 113.341 23.2584 113.505 23.2285C114.176 23.1386 114.818 22.9438 115.43 22.6592C116.311 22.2397 114.191 20.1723 113.714 19.8727Z" fill="white"/>
<path d="M91.2939 23.3183C91.5029 23.4382 91.8014 23.5131 91.9507 23.3333C92.0104 23.2584 92.0253 23.1835 92.0552 23.0936C92.2343 22.2696 92.2642 21.4007 92.1447 20.5767C92.1149 20.352 92.0552 20.1123 91.8611 19.9925C91.7119 19.9026 91.5178 19.9176 91.3536 19.9625C90.6968 20.0823 90.0549 20.3071 89.4578 20.6217C88.5921 21.0561 90.8013 23.0486 91.2939 23.3183Z" fill="white"/>
<path d="M100.011 21.5205C100.22 21.6403 100.519 21.7152 100.668 21.5354C100.728 21.4605 100.742 21.3856 100.772 21.2957C100.951 20.4718 100.981 19.6029 100.862 18.7789C100.832 18.5542 100.772 18.3145 100.578 18.1946C100.429 18.1047 100.235 18.1197 100.071 18.1646C99.414 18.2845 98.7722 18.5092 98.1751 18.8238C97.3094 19.2733 99.5185 21.2508 100.011 21.5205Z" fill="white"/>
<path d="M96.0707 22.8688C95.8915 22.704 95.6378 22.5542 95.4437 22.689C95.3691 22.7339 95.3243 22.8238 95.2945 22.8987C94.9064 23.6478 94.6675 24.4718 94.563 25.3257C94.5332 25.5504 94.5332 25.8051 94.6974 25.9549C94.8168 26.0748 95.0108 26.1047 95.19 26.1197C95.8617 26.1647 96.5334 26.1197 97.1902 25.9549C98.1156 25.7302 96.4886 23.2583 96.0707 22.8688Z" fill="white"/>
<path d="M104.952 22.2096C104.743 22.0897 104.459 21.9998 104.295 22.1646C104.236 22.2246 104.206 22.3145 104.191 22.4043C103.967 23.2283 103.892 24.0823 103.982 24.9062C103.997 25.1309 104.056 25.3706 104.236 25.5055C104.385 25.5954 104.579 25.5954 104.743 25.5654C105.415 25.4755 106.057 25.2808 106.669 24.9961C107.564 24.6066 105.445 22.5092 104.952 22.2096Z" fill="white"/>
<path d="M107.474 19.5878C107.683 19.7077 107.982 19.7826 108.131 19.6028C108.191 19.5429 108.206 19.453 108.236 19.3631C108.415 18.5391 108.445 17.6702 108.325 16.8463C108.295 16.6215 108.236 16.3818 108.042 16.262C107.892 16.1721 107.698 16.1871 107.534 16.232C106.877 16.3519 106.236 16.5766 105.638 16.8912C104.773 17.3257 106.982 19.3182 107.474 19.5878Z" fill="white"/>
<path d="M66.8434 18.135C66.6344 14.8092 67.0375 10.6744 70.1423 8.74178C72.0977 7.5283 74.6651 7.27361 76.6951 8.12755C78.1281 8.7268 79.3073 10.0901 80.0686 11.738C84.0839 11.004 87.129 10.8991 87.129 10.8991C87.129 10.8991 100.877 9.77549 109.042 9.10133C109.206 8.14253 110.251 7.16875 112.788 6.37474C113.997 5.98523 115.102 6.07511 116.087 6.41968C117.102 6.77923 118.028 8.17249 118.908 11.0639C119.505 13.0264 111.102 16.4272 101.981 19.0489C93.667 21.4459 85.0094 21.1313 84.5765 21.4309C84.1884 21.7006 89.9651 26.7493 101.981 25.2362C114.997 23.5882 121.177 19.0489 121.177 19.0489C121.177 19.0489 121.476 23.1538 120.073 24.1575C117.654 25.8804 115.251 27.8429 108.594 30.0901C107.235 30.5545 104.862 31.2886 101.817 31.783C101.563 31.8279 101.369 31.8579 101.22 31.8729C101.16 31.768 101.071 31.6032 100.892 31.4684C100.578 31.2287 100.25 31.1987 100.13 31.1987C99.6228 31.1987 99.1153 31.1987 98.5928 31.1987C98.5928 30.7193 98.5928 30.2399 98.6078 29.7455C98.6078 29.6556 98.5928 29.2362 98.2644 28.9066C97.8913 28.5171 97.4136 28.532 97.339 28.532C96.2493 28.532 95.1447 28.532 94.0551 28.532C93.9804 28.532 93.4879 28.562 93.1296 28.9665C92.8311 29.3111 92.8311 29.7006 92.8311 29.8054C92.8311 30.2699 92.8311 30.7343 92.8311 31.1987C92.6072 31.1987 92.3833 31.1987 92.1594 31.1987C92.0549 31.1987 91.6966 31.2137 91.3832 31.4983C90.9801 31.8429 90.9652 32.3523 90.9652 32.4272C90.9652 32.6669 90.9652 32.8916 90.9652 33.1313C90.6518 32.7418 89.2188 30.8691 85.5916 30.974C84.5467 31.0039 82.8002 31.1388 80.7552 32.0077C80.7254 31.9178 80.606 31.5882 80.2627 31.3785C80.0089 31.2137 79.7402 31.1987 79.6357 31.1987C79.0536 31.1837 76.0682 31.1687 71.9783 31.1987C70.7543 31.1987 70.1273 31.5732 69.3362 32.0377C68.2018 32.6968 67.5002 33.5657 67.127 34.135C67.127 34.0451 67.127 33.9553 67.127 33.8504C67.127 30.165 67.1121 26.4796 67.1121 22.7792C67.0823 22.4796 67.0524 21.9702 67.0076 21.326C66.9031 19.5882 66.8583 18.2549 66.8434 18.135Z" fill="#21BF73"/>
<path d="M91.9802 10.5243C91.9802 10.5243 91.0696 11.573 91.0547 12.2022C91.0547 12.5019 91.1592 12.8614 91.3383 13.0861C91.5174 13.3109 91.816 13.4607 92.1145 13.4007C92.3981 13.3408 92.5921 13.1011 92.6966 12.8165C92.8011 12.5468 92.7265 12.0075 92.7862 11.7228C92.9802 10.794 93.6818 10.3745 93.6818 10.3745L91.9802 10.5243Z" fill="#52DA98"/>
<path d="M97.3543 10.075C97.3543 10.075 96.8766 11.3184 96.9214 11.9476C96.9363 12.2622 97.1752 12.8615 97.4588 12.9813C97.5782 13.0413 97.7126 13.0413 97.832 13.0113C97.9365 12.9963 98.0559 12.9813 98.1454 12.9214C98.3395 12.8165 98.4291 12.5768 98.4738 12.3521C98.5037 12.1274 98.3843 11.4083 98.3843 11.1686C98.3992 10.5544 99.0709 9.91016 99.0709 9.91016L97.3543 10.075Z" fill="#52DA98"/>
<path d="M102.4 9.65503C102.057 10.2093 101.803 10.449 101.698 11.0782C101.639 11.4677 101.743 12.2168 102.027 12.4865C102.206 12.6513 102.489 12.6962 102.713 12.6063C102.937 12.5164 103.116 12.3067 103.206 12.082C103.325 11.7524 103.31 11.3928 103.325 11.0483C103.355 10.6438 103.445 10.2393 103.728 9.95465C103.893 9.78986 104.34 9.49023 104.34 9.49023L102.4 9.65503Z" fill="#52DA98"/>
<path d="M73.6203 13.97C72.6351 13.97 71.8291 13.161 71.8291 12.1723C71.8291 11.1835 72.6351 10.3745 73.6203 10.3745C74.6055 10.3745 75.4115 11.1835 75.4115 12.1723C75.4115 13.176 74.6204 13.97 73.6203 13.97Z" fill="#163A5F"/>
<path d="M73.3669 14.217C73.0385 13.9024 73.0385 13.378 73.3669 13.0485C73.6953 12.7338 74.2177 12.7338 74.5312 13.0485C74.8596 13.3631 74.8596 13.8874 74.5312 14.217C74.2177 14.5316 73.6953 14.5316 73.3669 14.217Z" fill="white"/>
<path d="M113.445 9.59555C113.759 10.1499 113.908 10.7791 113.863 11.4083C113.848 11.7379 113.699 12.1424 113.37 12.1723C113.057 12.2023 112.848 11.8727 112.729 11.5881C112.549 11.1985 112.4 10.809 112.251 10.4045C111.878 9.37083 112.758 8.38207 113.445 9.59555Z" fill="#163A5F"/>
<path d="M114.863 9.35571C114.908 9.98493 115.117 10.5992 115.49 11.1085C115.684 11.3782 116.028 11.6329 116.311 11.4831C116.58 11.3332 116.58 10.9437 116.535 10.6441C116.475 10.2246 116.401 9.80515 116.296 9.40066C116.058 8.30703 114.774 7.96246 114.863 9.35571Z" fill="#163A5F"/>
<path d="M66.7539 47.0337C66.7539 46.1198 67.0823 45.3558 67.7242 44.7415C67.2465 44.2771 67.0226 43.6779 67.0226 42.9588C67.0226 41.8651 67.5301 40.9812 68.5302 40.2921C67.8734 39.4831 67.545 38.4794 67.545 37.3108C67.545 35.8127 68.0376 34.6142 69.0228 33.7303C70.008 32.8464 71.3514 32.397 73.0381 32.397H79.6656V35.0636H77.6505C78.2326 35.7378 78.5312 36.5767 78.5312 37.5655C78.5312 38.9438 78.0237 40.0374 77.0236 40.8614C76.0235 41.6854 74.695 42.1048 73.0381 42.1048C72.1723 42.1048 71.3812 41.985 70.6797 41.7453C70.3513 41.94 70.1871 42.1947 70.1871 42.4944C70.1871 42.8389 70.4259 43.0786 70.8886 43.2284C71.3812 43.3633 72.3216 43.4532 73.7247 43.5131C75.7548 43.588 77.2475 43.8876 78.2028 44.4419C79.1581 44.9962 79.6358 45.8202 79.6358 46.9138C79.6358 48.1123 79.0835 49.0561 77.9789 49.7303C76.8743 50.4045 75.3518 50.7341 73.4113 50.7341C71.232 50.7341 69.59 50.4194 68.4556 49.7902C67.3211 49.146 66.7539 48.2322 66.7539 47.0337ZM70.7842 37.3108C70.7842 37.955 70.9931 38.4794 71.4111 38.8988C71.829 39.3183 72.3515 39.5281 72.9933 39.5281C73.6501 39.5281 74.1875 39.3183 74.6054 38.8988C75.0234 38.4794 75.2323 37.955 75.2323 37.3108C75.2323 36.6816 75.0234 36.1573 74.6054 35.7378C74.1875 35.3183 73.6501 35.1086 72.9933 35.1086C72.3515 35.1086 71.8141 35.3183 71.4111 35.7378C70.9931 36.1573 70.7842 36.6816 70.7842 37.3108ZM69.7094 46.7041C69.7094 47.603 70.8737 48.0524 73.2023 48.0524C75.3368 48.0524 76.3966 47.7228 76.3966 47.0636C76.3966 46.764 76.1727 46.5393 75.7249 46.4045C75.2771 46.2547 74.5159 46.1797 73.4561 46.1648C72.0679 46.1198 70.9483 46.0149 70.0826 45.8202C69.8438 46.1198 69.7094 46.4045 69.7094 46.7041Z" fill="#21BF73"/>
<path d="M81.502 37.4451C82.3678 36.7859 83.547 36.4564 85.0397 36.4564C85.9055 36.4564 86.7563 36.5762 87.637 36.8009V36.5163C87.637 35.932 87.4429 35.4976 87.0548 35.2279C86.6817 34.9582 86.0846 34.8234 85.2487 34.8234C84.2337 34.8234 83.0694 35.108 81.7707 35.6624L80.9348 33.2354C82.5021 32.5163 84.0993 32.1567 85.7263 32.1567C87.3683 32.1567 88.6371 32.5462 89.5178 33.3103C90.3984 34.0893 90.8462 35.168 90.8462 36.5762V43.4676H87.8161L87.7564 42.1193C86.7563 43.123 85.5024 43.6174 83.9799 43.6174C82.8305 43.6174 81.92 43.3028 81.2184 42.6736C80.5318 42.0294 80.1885 41.1904 80.1885 40.1717C80.1885 39.0032 80.6363 38.1043 81.502 37.4451ZM83.5619 39.9919C83.5619 40.7859 84.0695 41.1904 85.0696 41.1904C85.786 41.1904 86.3831 40.9957 86.8757 40.5912C87.3683 40.1717 87.637 39.6624 87.6967 39.0481C86.8458 38.8084 86.1294 38.6886 85.5024 38.6886C84.2038 38.6886 83.5619 39.123 83.5619 39.9919Z" fill="#21BF73"/>
<path d="M92.1743 35.1688V32.3973H93.9954L94.07 29.7456H97.4435V32.4123H100.19V35.1838H97.4435V39.0939C97.4435 40.0527 97.8614 40.5321 98.6824 40.5321C99.0854 40.5321 99.5332 40.4273 100.011 40.2325L100.757 43.1089C99.8915 43.4984 98.9809 43.6932 98.0107 43.6932C96.6673 43.6932 95.6523 43.3336 94.9656 42.6145C94.279 41.8804 93.9357 40.8318 93.9357 39.4385V35.1988H92.1743V35.1688Z" fill="#21BF73"/>
<path d="M103.161 33.7304C104.295 32.6518 105.773 32.1274 107.624 32.1274C109.46 32.1274 110.938 32.6668 112.072 33.7304C113.222 34.8091 113.789 36.2023 113.789 37.9402C113.789 39.663 113.222 41.0713 112.072 42.1499C110.938 43.2286 109.46 43.7529 107.624 43.7529C105.773 43.7529 104.28 43.2136 103.146 42.1499C102.012 41.0713 101.444 39.678 101.444 37.9402C101.444 36.2023 102.012 34.8091 103.161 33.7304ZM105.654 39.9776C106.161 40.487 106.818 40.7567 107.624 40.7567C108.43 40.7567 109.072 40.502 109.579 39.9776C110.087 39.4683 110.326 38.7791 110.326 37.9402C110.326 37.1162 110.072 36.442 109.579 35.9177C109.072 35.3934 108.43 35.1237 107.624 35.1237C106.818 35.1237 106.161 35.3934 105.654 35.9177C105.146 36.4271 104.907 37.1012 104.907 37.9402C104.892 38.7791 105.146 39.4533 105.654 39.9776Z" fill="#21BF73"/>
<path d="M119.072 32.4115L119.117 33.9097C119.968 32.816 121.087 32.2617 122.505 32.2617C123.043 32.2617 123.565 32.3516 124.073 32.5164L123.297 35.7524C122.819 35.6025 122.371 35.5426 121.923 35.5426C120.222 35.5426 119.371 36.5763 119.371 38.6587V43.4827H115.878V32.4115H119.072Z" fill="#21BF73"/>
<path d="M0.926758 42.1951L2.16569 39.8131C3.47925 40.5922 4.71817 40.9667 5.85261 40.9667C6.82286 40.9667 7.31544 40.697 7.31544 40.1727C7.31544 39.7232 6.70344 39.3637 5.46451 39.079C4.06139 38.7495 3.04637 38.3 2.38959 37.7307C1.74773 37.1614 1.41934 36.4124 1.41934 35.4835C1.41934 34.4798 1.79251 33.6858 2.53886 33.1015C3.30012 32.5023 4.35993 32.2026 5.7332 32.2026C7.41993 32.2026 8.98725 32.6521 10.4053 33.536L9.16637 35.8281C8.74842 35.5435 8.24091 35.3038 7.61398 35.124C7.00198 34.9442 6.43476 34.8393 5.91232 34.8393C5.06149 34.8393 4.64354 35.0641 4.64354 35.5285C4.64354 35.7682 4.77788 35.9779 5.03164 36.1277C5.30032 36.2775 5.80783 36.4423 6.53925 36.6221C9.25593 37.2363 10.6143 38.4199 10.6143 40.1577C10.6143 41.2363 10.1814 42.0903 9.33057 42.7345C8.46481 43.3637 7.31544 43.6783 5.88247 43.6783C4.1211 43.6783 2.46422 43.1839 0.926758 42.1951Z" fill="#163A5F"/>
<path d="M11.3159 35.1688V32.3973H13.137L13.1967 29.7456H16.5702V32.3973H19.3167V35.1688H16.5702V39.064C16.5702 40.0228 16.9881 40.5022 17.8091 40.5022C18.2121 40.5022 18.6599 40.3973 19.1376 40.2025L19.8839 43.0789C19.0182 43.4685 18.1076 43.6632 17.1374 43.6632C15.794 43.6632 14.7789 43.3037 14.0923 42.5846C13.4057 41.8505 13.0624 40.8018 13.0624 39.4085V35.1688H11.3159Z" fill="#163A5F"/>
<path d="M22.108 37.4451C22.9737 36.7859 24.153 36.4564 25.6457 36.4564C26.5114 36.4564 27.3772 36.5762 28.2429 36.8009V36.5163C28.2429 35.932 28.0489 35.4976 27.6608 35.2279C27.2876 34.9582 26.6905 34.8234 25.8546 34.8234C24.8396 34.8234 23.6753 35.108 22.3767 35.6624L21.5408 33.2354C23.1081 32.5163 24.7053 32.1567 26.3323 32.1567C27.9742 32.1567 29.243 32.5462 30.1237 33.3103C31.0044 34.0893 31.4522 35.168 31.4522 36.5612V43.4376H28.422L28.3623 42.0893C27.3622 43.0931 26.1084 43.5874 24.5858 43.5874C23.4365 43.5874 22.511 43.2728 21.8244 42.6436C21.1377 41.9994 20.7944 41.1605 20.7944 40.1418C20.7944 39.0032 21.2422 38.1043 22.108 37.4451ZM24.1679 39.9919C24.1679 40.7859 24.6754 41.1904 25.6755 41.1904C26.392 41.1904 26.9891 40.9957 27.4817 40.5912C27.9742 40.1717 28.2429 39.6624 28.3026 39.0481C27.4518 38.8084 26.7353 38.6886 26.1084 38.6886C24.8098 38.6886 24.1679 39.123 24.1679 39.9919Z" fill="#163A5F"/>
<path d="M32.7808 35.1688V32.3973H34.6018L34.6615 29.7456H38.035V32.3973H40.7815V35.1688H38.035V39.064C38.035 40.0228 38.453 40.5022 39.2739 40.5022C39.677 40.5022 40.1248 40.3973 40.6024 40.2025L41.3488 43.0789C40.483 43.4685 39.5725 43.6632 38.6022 43.6632C37.2588 43.6632 36.2438 43.3037 35.5572 42.5846C34.8705 41.8505 34.5272 40.8018 34.5272 39.4085V35.1688H32.7808Z" fill="#163A5F"/>
<path d="M42.9458 32.397H46.4387V38.3745C46.4387 39.8127 47.0507 40.5468 48.2896 40.5468C48.9762 40.5468 49.4987 40.337 49.8719 39.9026C50.2599 39.4681 50.454 38.8988 50.454 38.1648V32.397H53.9469V43.4531H50.7525L50.7078 41.955C49.7375 43.0636 48.5135 43.6329 47.0656 43.6329C45.8118 43.6329 44.8117 43.2284 44.0653 42.4344C43.319 41.6404 42.9458 40.5917 42.9458 39.3033V32.397Z" fill="#163A5F"/>
<path d="M55.8428 42.1951L57.0817 39.8131C58.3953 40.5922 59.6342 40.9667 60.7687 40.9667C61.7389 40.9667 62.2315 40.697 62.2315 40.1727C62.2315 39.7232 61.6195 39.3637 60.3806 39.079C58.9774 38.7495 57.9624 38.3 57.3056 37.7307C56.6638 37.1614 56.3354 36.4124 56.3354 35.4835C56.3354 34.4798 56.7085 33.6858 57.4549 33.1015C58.2162 32.5023 59.276 32.2026 60.6493 32.2026C62.336 32.2026 63.9033 32.6521 65.3214 33.536L64.0824 35.8281C63.6645 35.5435 63.157 35.3038 62.53 35.124C61.918 34.9442 61.3508 34.8393 60.8284 34.8393C59.9775 34.8393 59.5596 35.0641 59.5596 35.5285C59.5596 35.7682 59.6939 35.9779 59.9477 36.1277C60.2164 36.2775 60.7239 36.4423 61.4553 36.6221C64.172 37.2363 65.5304 38.4199 65.5304 40.1577C65.5304 41.2363 65.0975 42.0903 64.2466 42.7345C63.3809 43.3637 62.2315 43.6783 60.7985 43.6783C59.0222 43.6783 57.3653 43.1839 55.8428 42.1951Z" fill="#163A5F"/>
</svg>
